<svg width="24" height="24" viewBox="0 0 24 24" fill="none" xmlns="http://www.w3.org/2000/svg">
<path d="M20.5781 11.3436L4.74375 2.47487C4.61037 2.40118 4.45771 2.36987 4.30609 2.38511C4.15448 2.40034 4.0111 2.46139 3.89505 2.56014C3.77899 2.65889 3.69577 2.79064 3.65646 2.93786C3.61715 3.08508 3.62362 3.24079 3.675 3.38424L6.65625 11.7467C6.72192 11.9091 6.72192 12.0906 6.65625 12.253L3.675 20.6155C3.62362 20.7589 3.61715 20.9146 3.65646 21.0619C3.69577 21.2091 3.77899 21.3408 3.89505 21.4396C4.0111 21.5383 4.15448 21.5994 4.30609 21.6146C4.45771 21.6299 4.61037 21.5986 4.74375 21.5249L20.5781 12.6561C20.6953 12.5913 20.7931 12.4962 20.8611 12.3808C20.9291 12.2654 20.965 12.1338 20.965 11.9999C20.965 11.8659 20.9291 11.7344 20.8611 11.619C20.7931 11.5036 20.6953 11.4085 20.5781 11.3436V11.3436Z" stroke="white" stroke-width="3" stroke-linecap="round" stroke-linejoin="round"/>
<path d="M6.75 12H12.75" stroke="white" stroke-width="3" stroke-linecap="round" stroke-linejoin="round"/>
</svg>
